<svg id="Layer_1" data-name="Layer 1" xmlns="http://www.w3.org/2000/svg" viewBox="0 0 860 860"><defs><style>.cls-1{fill:#072022;}.cls-2{fill:#8cd5e6;}</style></defs><rect class="cls-1" width="860" height="860" rx="160.03"/><path class="cls-2" d="M650,397.5l7.82,4.92a34.29,34.29,0,0,1,0,58.07L448.35,592.09a34.32,34.32,0,0,1-36.44,0L202.14,460.23a34.29,34.29,0,0,1,0-58.07l7.82-4.91L411.85,524.19a34.31,34.31,0,0,0,36.43,0L650,397.57Zm0,100.85,7.82,4.91a34.3,34.3,0,0,1,0,58.08L448.35,692.94a34.32,34.32,0,0,1-36.44,0L202.14,561.08a34.3,34.3,0,0,1,0-58.08l7.82-4.91L411.85,625a34.31,34.31,0,0,0,36.43,0L650,498.35ZM448.09,167.19,657.8,299.05a34.31,34.31,0,0,1,0,58.08L448.35,488.66a34.32,34.32,0,0,1-36.44,0L202.14,356.74a34.3,34.3,0,0,1,0-58.08l209.58-131.6a34.31,34.31,0,0,1,36.43,0Zm0,0"/></svg>